<?xml version="1.0" standalone="no"?>
<!DOCTYPE svg PUBLIC "-//W3C//DTD SVG 20010904//EN"
 "http://www.w3.org/TR/2001/REC-SVG-20010904/DTD/svg10.dtd">
<svg version="1.0" xmlns="http://www.w3.org/2000/svg"
 width="512.000000pt" height="512.000000pt" viewBox="0 0 512.000000 512.000000"
 preserveAspectRatio="xMidYMid meet">

<g transform="translate(0.000000,512.000000) scale(0.100000,-0.100000)"
fill="#000000" stroke="none">
<path d="M1290 5104 c-211 -45 -390 -218 -445 -429 -13 -52 -15 -294 -15
-2110 0 -2259 -4 -2098 62 -2235 45 -93 161 -208 258 -254 145 -70 79 -67
1445 -64 1225 3 1230 3 1285 24 111 43 166 77 241 153 52 52 86 97 107 141 66
136 62 24 62 1775 l0 1590 -713 713 -712 712 -755 -1 c-607 0 -768 -3 -820
-15z m1450 -689 c0 -495 1 -518 21 -577 51 -152 169 -252 329 -277 39 -7 259
-11 543 -11 l477 0 -2 -1527 -3 -1528 -32 -66 c-42 -86 -138 -177 -220 -211
l-58 -23 -1235 0 -1235 0 -58 23 c-122 50 -225 182 -247 317 -13 82 -13 3955
0 4048 23 157 141 291 292 331 43 12 177 15 741 15 l687 1 0 -515z m1220 -667
c0 -13 -815 -10 -865 3 -55 14 -122 70 -146 123 -17 38 -19 75 -19 476 l0 435
515 -515 c283 -283 515 -518 515 -522z"/>
<path d="M1152 1233 l3 -658 23 -50 c27 -60 82 -118 137 -148 l40 -22 1189 -3
c1355 -3 1250 -9 1341 82 89 88 85 54 85 803 l0 653 -1410 0 -1411 0 3 -657z
m1904 287 c45 -19 85 -66 103 -119 22 -68 13 -80 -72 -96 -34 -7 -37 -5 -42
21 -13 58 -28 85 -56 99 -70 37 -139 -4 -139 -81 0 -52 31 -91 142 -180 119
-95 159 -145 178 -225 24 -100 -10 -186 -90 -226 -57 -30 -166 -31 -226 -4
-71 32 -124 117 -124 199 0 28 4 32 43 42 23 6 49 13 57 16 12 3 19 -10 28
-55 14 -65 47 -110 84 -113 78 -5 108 19 108 87 0 59 -37 106 -169 214 -128
106 -151 143 -151 245 0 81 17 117 72 160 63 48 166 54 254 16z m-759 -21 c66
-34 93 -87 93 -184 0 -38 -5 -88 -11 -109 -10 -38 -50 -88 -76 -97 -9 -3 7
-64 52 -204 36 -110 65 -203 65 -207 0 -5 -26 -8 -58 -8 l-59 0 -60 198 -60
197 -41 3 -42 3 -2 -198 -3 -198 -60 0 -60 0 -3 419 -2 419 139 -5 c123 -4
145 -7 188 -29z m321 -386 l-3 -418 -60 0 -60 0 -3 418 -2 417 65 0 65 0 -2
-417z"/>
<path d="M2100 1306 l0 -136 35 0 c108 0 173 95 132 192 -20 47 -51 67 -116
75 l-51 6 0 -137z"/>
</g>
</svg>
